/* XPM */
static char * liquidwar_32x32_xpm[] = {
"32 32 329 2",
"  	c None",
". 	c #00791F",
"+ 	c #0001A0",
"@ 	c #0000D7",
"# 	c #0000FF",
"$ 	c #0000FE",
"% 	c #05D003",
"& 	c #00FE00",
"* 	c #01C901",
"= 	c #024244",
"- 	c #010098",
"; 	c #0000E3",
"> 	c #764001",
", 	c #00EA01",
"' 	c #00F400",
") 	c #007310",
"! 	c #00037A",
"~ 	c #0000B4",
"{ 	c #0000FA",
"] 	c #0000F2",
"^ 	c #F90000",
"/ 	c #D00000",
"( 	c #5C3500",
"_ 	c #01EE00",
": 	c #00FF00",
"< 	c #00861D",
"[ 	c #00017B",
"} 	c #0000A8",
"| 	c #0000F5",
"1 	c #0003D2",
"2 	c #009C40",
"3 	c #FA0000",
"4 	c #FF0000",
"5 	c #B70000",
"6 	c #562800",
"7 	c #00DD00",
"8 	c #00F800",
"9 	c #008B1D",
"0 	c #000780",
"a 	c #0000AA",
"b 	c #0000F6",
"c 	c #0100FC",
"d 	c #0105A7",
"e 	c #00991F",
"f 	c #FD0000",
"g 	c #F70000",
"h 	c #950000",
"i 	c #3C3800",
"j 	c #00D700",
"k 	c #00ED00",
"l 	c #00642B",
"m 	c #000082",
"n 	c #0000BA",
"o 	c #0000FD",
"p 	c #0000F0",
"q 	c #020383",
"r 	c #019D11",
"s 	c #00FC00",
"t 	c #FB0000",
"u 	c #FE0000",
"v 	c #C00000",
"w 	c #2E5300",
"x 	c #00DF00",
"y 	c #004F3C",
"z 	c #00008C",
"A 	c #0000D3",
"B 	c #0000F7",
"C 	c #000A7A",
"D 	c #019B06",
"E 	c #00FD00",
"F 	c #BA0000",
"G 	c #1C5900",
"H 	c #00D400",
"I 	c #00F500",
"J 	c #004C42",
"K 	c #0000A2",
"L 	c #0000EE",
"M 	c #002264",
"N 	c #008F00",
"O 	c #01EB00",
"P 	c #FC0000",
"Q 	c #A20100",
"R 	c #135501",
"S 	c #00B100",
"T 	c #00FA00",
"U 	c #00D100",
"V 	c #003250",
"W 	c #0000D5",
"X 	c #0000CF",
"Y 	c #002F49",
"Z 	c #00AF00",
"` 	c #00F700",
" .	c #00F200",
"..	c #E20000",
"+.	c #7D0400",
"@.	c #0A4802",
"#.	c #00A500",
"$.	c #00FB00",
"%.	c #00A900",
"&.	c #002560",
"*.	c #0000FC",
"=.	c #000097",
"-.	c #005617",
";.	c #00D500",
">.	c #02FF00",
",.	c #00CE03",
"'.	c #00B400",
").	c #F80001",
"!.	c #C70000",
"~.	c #5F0700",
"{.	c #074900",
"].	c #00AD00",
"^.	c #009401",
"/.	c #002167",
"(.	c #0000EF",
"_.	c #0000C7",
":.	c #0000DB",
"<.	c #0000D6",
"[.	c #001674",
"}.	c #007309",
"|.	c #00D000",
"1.	c #01FF00",
"2.	c #00D800",
"3.	c #006870",
"4.	c #C30000",
"5.	c #41050A",
"6.	c #035004",
"7.	c #00C700",
"8.	c #009001",
"9.	c #001654",
"0.	c #00009F",
"a.	c #0000D4",
"b.	c #0000C9",
"c.	c #001E6D",
"d.	c #002C59",
"e.	c #002A64",
"f.	c #0009A4",
"g.	c #0000B8",
"h.	c #0000A1",
"i.	c #00353F",
"j.	c #00E400",
"k.	c #064E4C",
"l.	c #B50000",
"m.	c #501805",
"n.	c #026E02",
"o.	c #00C902",
"p.	c #002042",
"q.	c #000079",
"r.	c #000093",
"s.	c #004245",
"t.	c #008502",
"u.	c #008003",
"v.	c #007800",
"w.	c #004F2C",
"x.	c #00028C",
"y.	c #00016C",
"z.	c #004A16",
"A.	c #00CA00",
"B.	c #01E600",
"C.	c #005B26",
"D.	c #F40000",
"E.	c #AD0000",
"F.	c #4A3500",
"G.	c #00A200",
"H.	c #005025",
"I.	c #00005D",
"J.	c #003436",
"K.	c #008700",
"L.	c #00A400",
"M.	c #00BA00",
"N.	c #009E00",
"O.	c #00262C",
"P.	c #001352",
"Q.	c #007B04",
"R.	c #00E000",
"S.	c #01C400",
"T.	c #003A43",
"U.	c #B30000",
"V.	c #343400",
"W.	c #01FB00",
"X.	c #00D301",
"Y.	c #009C0C",
"Z.	c #009802",
"`.	c #00EA00",
" +	c #00D900",
".+	c #007304",
"++	c #003A18",
"@+	c #008200",
"#+	c #00EF00",
"$+	c #019A00",
"%+	c #002C54",
"&+	c #BB0000",
"*+	c #382800",
"=+	c #008D00",
"-+	c #00A700",
";+	c #00D600",
">+	c #00C800",
",+	c #018406",
"'+	c #001F64",
")+	c #F60000",
"!+	c #BC0000",
"~+	c #650C00",
"{+	c #055600",
"]+	c #00F000",
"^+	c #00DA00",
"/+	c #00F100",
"(+	c #01CA00",
"_+	c #007315",
":+	c #000AB5",
"<+	c #EB0000",
"[+	c #A20000",
"}+	c #2F2200",
"|+	c #00AC00",
"1+	c #00F900",
"2+	c #048800",
"3+	c #087600",
"4+	c #00AB00",
"5+	c #02B900",
"6+	c #005C2C",
"7+	c #790000",
"8+	c #0F6E00",
"9+	c #00E500",
"0+	c #00DE00",
"a+	c #00D200",
"b+	c #009700",
"c+	c #027E00",
"d+	c #0D6700",
"e+	c #3E2700",
"f+	c #4B1100",
"g+	c #066900",
"h+	c #00C500",
"i+	c #00C200",
"j+	c #018D00",
"k+	c #002A72",
"l+	c #0000E7",
"m+	c #C90000",
"n+	c #590F00",
"o+	c #296D00",
"p+	c #078900",
"q+	c #028700",
"r+	c #096C00",
"s+	c #2E3100",
"t+	c #591C00",
"u+	c #740C00",
"v+	c #760000",
"w+	c #730000",
"x+	c #443700",
"y+	c #019500",
"z+	c #00C100",
"A+	c #00EC00",
"B+	c #00E100",
"C+	c #00B900",
"D+	c #008900",
"E+	c #015D35",
"F+	c #0005E0",
"G+	c #A70000",
"H+	c #820000",
"I+	c #771200",
"J+	c #641D00",
"K+	c #760F00",
"L+	c #920000",
"M+	c #9B0000",
"N+	c #940000",
"O+	c #930000",
"P+	c #900000",
"Q+	c #820108",
"R+	c #113C19",
"S+	c #008400",
"T+	c #00A600",
"U+	c #006D00",
"V+	c #015B24",
"W+	c #000AC4",
"X+	c #F30000",
"Y+	c #C10000",
"Z+	c #A40000",
"`+	c #E80000",
" @	c #E30000",
".@	c #D40000",
"+@	c #8F0000",
"@@	c #540028",
"#@	c #04036B",
"$@	c #003B2B",
"%@	c #00640D",
"&@	c #006A09",
"*@	c #00650A",
"=@	c #013A32",
"-@	c #0009B5",
";@	c #F20000",
">@	c #D60000",
",@	c #700000",
"'@	c #230041",
")@	c #0000AB",
"!@	c #0000CC",
"~@	c #000BB4",
"{@	c #00119B",
"]@	c #000E8E",
"^@	c #0100CB",
"/@	c #0400F8",
"(@	c #FA0002",
"_@	c #F10000",
":@	c #4C001E",
"<@	c #0600B6",
"[@	c #0100FF",
"}@	c #0100F5",
"|@	c #FA0001",
"1@	c #F50000",
"2@	c #56000A",
"3@	c #12008E",
"4@	c #0000FB",
"5@	c #0100FD",
"6@	c #EF0000",
"7@	c #C60000",
"8@	c #59000F",
"9@	c #110078",
"0@	c #0100FE",
"a@	c #E70000",
"b@	c #910000",
"c@	c #5D000B",
"d@	c #2F0049",
"e@	c #0C00A6",
"f@	c #0000DE",
"g@	c #F30001",
"h@	c #EC0000",
"i@	c #600024",
"j@	c #0C0076",
"k@	c #0000B2",
"l@	c #0000DF",
"m@	c #0100F8",
"n@	c #0000F4",
"                                                                ",
"                                                                ",
"                        . + @ # # $ # $ $                       ",
"                  % & & * = - ; # # $ # # # $                   ",
"                > , & & ' ) ! ~ { # $ $ $ $ # $ ]               ",
"            ^ / ( _ : & : < [ } | # # $ $ $ # # 1 2             ",
"          3 4 5 6 7 : : 8 9 0 a b # $ # # # # c d e :           ",
"          f g h i j : : k l m n o # $ $ $ $ # p q r : s         ",
"        t u 4 v w x : : ' y z A # # $ # o $ # B C D & E         ",
"      ^ f u 4 F G H : : I J K L # # $ $ o o # { M N O & s       ",
"      P f u f Q R S T : U V W # $ # # # $ # o X Y Z ` &  .      ",
"    P f u 4 ..+.@.#.s $.%.&.A *.# # $ # # # L =.-.;.: >.,.'.    ",
"    ).u u 4 !.~.{.].: ' ^./.~ (.# ; _.:.] b <.[.}.|.: 1.2.3.    ",
"    t u u 4 4.5.6.7.: T 8.9.0.a.b.c.d.e.f.g.h.i.].I : 1.j.k.    ",
"    u f 4 3 l.m.n.7 : : o.p.q.r.s.t.u.v.w.x.y.z.A.: : : B.C.    ",
"    u f 4 D.E.F.G.8 : : I H.I.J.K.L.M.N.v.O.P.Q.R.: : s S.T.    ",
"    u u 4 P U.V.G.W.: & : X.Y.Z.%.`.: s  +.+++@+#+: : R.$+%+    ",
"    u u 4 4 &+*+=+ .: & & : : ' 8 : : : : R.-+;+: : : >+,+'+    ",
"    P u 4 )+!+~+{+|.: & & E : : ]+^+j /+: : : : & & : (+_+:+    ",
"    P f 4 P <+[+}+|+: : : : 1+2.N.2+3+4+` : & & E : T 5+6+:.    ",
"    P P f 4 4 ..7+8+` 9+0+a+b+c+d+e+f+g+h+E : : : $.i+j+k+l+    ",
"      f f u 4 4 m+n+o+p+q+r+s+t+u+v+w+x+y+z+A+B+U C+D+E+F+      ",
"      P f u 4 4 )+G+H+I+J+K+L+M+N+O+P+Q+R+S+T+@+U+K.V+W+#       ",
"        t f u f 4 X+Y+G+Z+m+`+`+ @.@+@@@#@$@%@&@*@=@-@b         ",
"        ^ f u 4 u 4 u X+;@u 4 4 4 >@,@'@)@!@~@{@]@^@# /@        ",
"          3 (@u f 4 4 4 4 4 4 4 _@N+:@<@B [@# { }@# #           ",
"            |@f f 4 4 4 u 4 4 1@Z+2@3@4@# $ 5@# # #             ",
"              P P f u u 4 6@7@O+8@9@!@5@$ 0@*.*.$               ",
"                  P P 4 a@b@c@d@e@f@b $ # *.4@                  ",
"                      g@h@i@j@k@l@; m@# n@                      ",
"                                                                ",
"                                                                "};
