/* XPM */
static char * liquidwar_xpm[] = {
"48 48 641 2",
"  	c None",
". 	c #009314",
"+ 	c #00256C",
"@ 	c #0000B5",
"# 	c #0000D8",
"$ 	c #0100F4",
"% 	c #0000FF",
"& 	c #0000FE",
"* 	c #00F900",
"= 	c #00FF00",
"- 	c #00F800",
"; 	c #00AD09",
"> 	c #004B3C",
", 	c #000F7F",
"' 	c #0000AE",
") 	c #0100DB",
"! 	c #318A04",
"~ 	c #00E002",
"{ 	c #00FE00",
"] 	c #01E400",
"^ 	c #02980D",
"/ 	c #023C48",
"( 	c #010389",
"_ 	c #0100B1",
": 	c #0000E3",
"< 	c #0000FD",
"[ 	c #962B01",
"} 	c #2B9702",
"| 	c #00F001",
"1 	c #00FD00",
"2 	c #00C000",
"3 	c #015A20",
"4 	c #000970",
"5 	c #000098",
"6 	c #0000C3",
"7 	c #0000F6",
"8 	c #0000FC",
"9 	c #F30000",
"0 	c #D10000",
"a 	c #782600",
"b 	c #1DAB00",
"c 	c #00FA00",
"d 	c #00CE00",
"e 	c #005D20",
"f 	c #00066A",
"g 	c #000092",
"h 	c #0000B7",
"i 	c #0000F0",
"j 	c #0000EC",
"k 	c #0021C8",
"l 	c #F90000",
"m 	c #F10000",
"n 	c #BF0000",
"o 	c #711B00",
"p 	c #1F9700",
"q 	c #00F500",
"r 	c #00DF02",
"s 	c #006C2E",
"t 	c #000874",
"u 	c #000091",
"v 	c #0000B2",
"w 	c #0000DA",
"x 	c #003E84",
"y 	c #00C020",
"z 	c #FE0000",
"A 	c #F00000",
"B 	c #AF0000",
"C 	c #681600",
"D 	c #1F8800",
"E 	c #00ED00",
"F 	c #00D901",
"G 	c #00732E",
"H 	c #000F77",
"I 	c #000093",
"J 	c #0000B3",
"K 	c #0000ED",
"L 	c #0100FA",
"M 	c #0102C0",
"N 	c #003A61",
"O 	c #00BA14",
"P 	c #FC0000",
"Q 	c #FD0000",
"R 	c #D70000",
"S 	c #8D0000",
"T 	c #551B00",
"U 	c #1A8600",
"V 	c #00E800",
"W 	c #00C202",
"X 	c #00612F",
"Y 	c #000D76",
"Z 	c #000094",
"` 	c #0000BB",
" .	c #0000F3",
"..	c #0201A4",
"+.	c #003C4C",
"@.	c #00B60E",
"#.	c #00FB00",
"$.	c #FB0001",
"%.	c #FF0000",
"&.	c #FB0000",
"*.	c #8A0000",
"=.	c #462900",
"-.	c #128E00",
";.	c #00E500",
">.	c #00F400",
",.	c #00B406",
"'.	c #004541",
").	c #00017F",
"!.	c #000097",
"~.	c #0000CB",
"{.	c #0000FB",
"].	c #0100FE",
"^.	c #0000E6",
"/.	c #010096",
"(.	c #023A3F",
"_.	c #00BA0A",
":.	c #00FC00",
"<.	c #FA0000",
"[.	c #EB0000",
"}.	c #A60100",
"|.	c #423C00",
"1.	c #089D00",
"2.	c #00B20B",
"3.	c #00344D",
"4.	c #000087",
"5.	c #0000A3",
"6.	c #0000DD",
"7.	c #000394",
"8.	c #004032",
"9.	c #02B704",
"0.	c #F70000",
"a.	c #AF0300",
"b.	c #394300",
"c.	c #02A400",
"d.	c #00EA00",
"e.	c #00B80D",
"f.	c #003450",
"g.	c #00008D",
"h.	c #0000B4",
"i.	c #0000F1",
"j.	c #000D8B",
"k.	c #004D20",
"l.	c #00AA00",
"m.	c #02EF00",
"n.	c #9C0500",
"o.	c #2A4600",
"p.	c #009900",
"q.	c #00DA00",
"r.	c #00AF0F",
"s.	c #002E57",
"t.	c #00009E",
"u.	c #0000CF",
"v.	c #0000F7",
"w.	c #0000EF",
"x.	c #001880",
"y.	c #005716",
"z.	c #009E00",
"A.	c #01E000",
"B.	c #E30000",
"C.	c #8C0700",
"D.	c #224600",
"E.	c #008900",
"F.	c #01C100",
"G.	c #00F600",
"H.	c #008E11",
"I.	c #002165",
"J.	c #0000C1",
"K.	c #0000F5",
"L.	c #0000CD",
"M.	c #001F68",
"N.	c #006911",
"O.	c #00B500",
"P.	c #01FE00",
"Q.	c #00EE01",
"R.	c #F80000",
"S.	c #CF0000",
"T.	c #7B0600",
"U.	c #1B4003",
"V.	c #007C01",
"W.	c #00B800",
"X.	c #00CB00",
"Y.	c #007118",
"Z.	c #001971",
"`.	c #0000D2",
" +	c #0000FA",
".+	c #0000DB",
"++	c #00009C",
"@+	c #002F3E",
"#+	c #008B06",
"$+	c #00EA01",
"%+	c #00BE05",
"&+	c #E40000",
"*+	c #B20000",
"=+	c #650A00",
"-+	c #123C01",
";+	c #006F01",
">+	c #01B600",
",+	c #00F700",
"'+	c #00B700",
")+	c #006421",
"!+	c #001776",
"~+	c #0000C2",
"{+	c #0000EA",
"]+	c #0000F2",
"^+	c #0000C7",
"/+	c #000481",
"(+	c #004722",
"_+	c #009B00",
":+	c #00E000",
"<+	c #02FF00",
"[+	c #00DE01",
"}+	c #00AA04",
"|+	c #00C200",
"1+	c #F60001",
"2+	c #D50000",
"3+	c #980000",
"4+	c #530E00",
"5+	c #0F3E00",
"6+	c #007000",
"7+	c #00BD00",
"8+	c #00A900",
"9+	c #005B25",
"0+	c #001679",
"a+	c #0000B1",
"b+	c #0000F8",
"c+	c #0000E7",
"d+	c #0000D5",
"e+	c #0000D6",
"f+	c #0000E4",
"g+	c #0000AF",
"h+	c #001A68",
"i+	c #005F15",
"j+	c #00DB00",
"k+	c #01FF00",
"l+	c #00E100",
"m+	c #00AB11",
"n+	c #00746A",
"o+	c #F70002",
"p+	c #870001",
"q+	c #3F0B05",
"r+	c #0B4103",
"s+	c #007F00",
"t+	c #00CD00",
"u+	c #00EC00",
"v+	c #009F00",
"w+	c #004C20",
"x+	c #001174",
"y+	c #0000A9",
"z+	c #0000EE",
"A+	c #0002AA",
"B+	c #000596",
"C+	c #000597",
"D+	c #0003B1",
"E+	c #0000C9",
"F+	c #003947",
"G+	c #008307",
"H+	c #00B900",
"I+	c #029C1A",
"J+	c #032BA5",
"K+	c #D30000",
"L+	c #7D0003",
"M+	c #320B0D",
"N+	c #064308",
"O+	c #008A00",
"P+	c #00D900",
"Q+	c #00AB00",
"R+	c #004B1C",
"S+	c #000D60",
"T+	c #0000C6",
"U+	c #001682",
"V+	c #003351",
"W+	c #003D47",
"X+	c #003854",
"Y+	c #001888",
"Z+	c #0000B0",
"`+	c #000873",
" @	c #004A27",
".@	c #00A400",
"+@	c #00F000",
"@@	c #03A903",
"#@	c #044252",
"$@	c #C50000",
"%@	c #830102",
"&@	c #3C1C08",
"*@	c #065705",
"=@	c #00E600",
"-@	c #00D300",
";@	c #006A1A",
">@	c #00114F",
",@	c #000077",
"'@	c #00246B",
")@	c #006024",
"!@	c #007E08",
"~@	c #007D07",
"{@	c #007707",
"]@	c #007505",
"^@	c #00532D",
"/@	c #001876",
"(@	c #000095",
"_@	c #000079",
":@	c #001547",
"<@	c #00570F",
"[@	c #01F200",
"}@	c #00AA02",
"|@	c #004937",
"1@	c #000C9E",
"2@	c #EE0000",
"3@	c #B80000",
"4@	c #890600",
"5@	c #423800",
"6@	c #047F00",
"7@	c #00F200",
"8@	c #009111",
"9@	c #001944",
"0@	c #00006B",
"a@	c #000073",
"b@	c #001959",
"c@	c #00621D",
"d@	c #008E00",
"e@	c #009500",
"f@	c #008700",
"g@	c #007C00",
"h@	c #006C01",
"i@	c #003D2B",
"j@	c #000868",
"k@	c #00026C",
"l@	c #003231",
"m@	c #00C500",
"n@	c #01E500",
"o@	c #009907",
"p@	c #003652",
"q@	c #0001BB",
"r@	c #ED0000",
"s@	c #840A00",
"t@	c #324800",
"u@	c #00D700",
"v@	c #00BC04",
"w@	c #004529",
"x@	c #000950",
"y@	c #001B4B",
"z@	c #004F1F",
"A@	c #008300",
"B@	c #00B300",
"C@	c #00C900",
"D@	c #005C03",
"E@	c #001F30",
"F@	c #000F51",
"G@	c #004723",
"H@	c #008B00",
"I@	c #00D500",
"J@	c #01F500",
"K@	c #01CA00",
"L@	c #00810C",
"M@	c #002465",
"N@	c #0000CC",
"O@	c #F50000",
"P@	c #C10000",
"Q@	c #7A0A00",
"R@	c #254600",
"S@	c #009300",
"T@	c #00D800",
"U@	c #00B107",
"V@	c #008014",
"W@	c #007F11",
"X@	c #008B01",
"Y@	c #009A00",
"Z@	c #00BE00",
"`@	c #00E900",
" #	c #00F300",
".#	c #00D400",
"+#	c #009800",
"@#	c #00550D",
"##	c #003222",
"$#	c #004F0F",
"%#	c #009100",
"&#	c #01A900",
"*#	c #006E14",
"=#	c #001C71",
"-#	c #C70000",
";#	c #720800",
">#	c #223F00",
",#	c #008D00",
"'#	c #00D000",
")#	c #00DF00",
"!#	c #009E01",
"~#	c #006904",
"{#	c #007401",
"]#	c #019400",
"^#	c #00611D",
"/#	c #001873",
"(#	c #CC0000",
"_#	c #7C0500",
":#	c #2C3200",
"<#	c #007600",
"[#	c #00BF00",
"}#	c #01F600",
"|#	c #00C800",
"1#	c #00EB00",
"2#	c #01BA00",
"3#	c #018A03",
"4#	c #00532C",
"5#	c #001182",
"6#	c #0100CE",
"7#	c #F20000",
"8#	c #C60000",
"9#	c #910100",
"0#	c #4C1800",
"a#	c #0A5000",
"b#	c #00E400",
"c#	c #00EF00",
"d#	c #00E300",
"e#	c #00E200",
"f#	c #01BD00",
"g#	c #00830B",
"h#	c #003C51",
"i#	c #0007BD",
"j#	c #D40000",
"k#	c #B00000",
"l#	c #720400",
"m#	c #202F00",
"n#	c #007800",
"o#	c #00D100",
"p#	c #00F100",
"q#	c #01CE00",
"r#	c #00AD00",
"s#	c #00A700",
"t#	c #00DE00",
"u#	c #02BF00",
"v#	c #007D10",
"w#	c #002A70",
"x#	c #0000E5",
"y#	c #D90000",
"z#	c #9B0000",
"A#	c #491100",
"B#	c #0D5600",
"C#	c #00C300",
"D#	c #0C7900",
"E#	c #116800",
"F#	c #047800",
"G#	c #00AE00",
"H#	c #02A800",
"I#	c #01681F",
"J#	c #001B89",
"K#	c #0000E8",
"L#	c #CD0000",
"M#	c #800000",
"N#	c #312900",
"O#	c #059700",
"P#	c #00E700",
"Q#	c #00B000",
"R#	c #018900",
"S#	c #047600",
"T#	c #145700",
"U#	c #3D2D00",
"V#	c #491900",
"W#	c #1D3D00",
"X#	c #017F00",
"Y#	c #00AC00",
"Z#	c #028901",
"`#	c #004449",
" $	c #0008B2",
".$	c #F40000",
"+$	c #B60000",
"@$	c #630800",
"#$	c #265100",
"$$	c #07B800",
"%$	c #00B400",
"&$	c #00B100",
"*$	c #056600",
"=$	c #125000",
"-$	c #264E00",
";$	c #3C3D00",
">$	c #4E1900",
",$	c #630100",
"'$	c #670000",
")$	c #451900",
"!$	c #126400",
"~$	c #00A500",
"{$	c #00CF00",
"]$	c #01EE00",
"^$	c #00A600",
"/$	c #029000",
"($	c #016F1D",
"_$	c #002191",
":$	c #E10000",
"<$	c #930000",
"[$	c #5D0F00",
"}$	c #3F4500",
"|$	c #227000",
"1$	c #0E7700",
"2$	c #087A00",
"3$	c #0A7500",
"4$	c #175600",
"5$	c #372D00",
"6$	c #561600",
"7$	c #6D1100",
"8$	c #7B0900",
"9$	c #7E0000",
"0$	c #780000",
"a$	c #760000",
"b$	c #730700",
"c$	c #443F00",
"d$	c #0A8400",
"e$	c #00A000",
"f$	c #01BB00",
"g$	c #00BC00",
"h$	c #027508",
"i$	c #004264",
"j$	c #0008DB",
"k$	c #C80000",
"l$	c #920000",
"m$	c #7C0000",
"n$	c #721100",
"o$	c #622300",
"p$	c #532D00",
"q$	c #582600",
"r$	c #691600",
"s$	c #810400",
"t$	c #950000",
"u$	c #900000",
"v$	c #8E0000",
"w$	c #8B0000",
"x$	c #710B08",
"y$	c #1D3E11",
"z$	c #006D06",
"A$	c #009000",
"B$	c #007200",
"C$	c #008000",
"D$	c #01710C",
"E$	c #00395A",
"F$	c #000CC7",
"G$	c #9E0000",
"H$	c #970000",
"I$	c #940000",
"J$	c #8C0000",
"K$	c #A90000",
"L$	c #BB0000",
"M$	c #B40000",
"N$	c #B50000",
"O$	c #AB0000",
"P$	c #960000",
"Q$	c #8C0002",
"R$	c #650026",
"S$	c #180D46",
"T$	c #003F21",
"U$	c #007100",
"V$	c #006A00",
"W$	c #006C00",
"X$	c #00680A",
"Y$	c #013B53",
"Z$	c #000AB8",
"`$	c #BC0000",
" %	c #AD0000",
".%	c #DA0000",
"+%	c #EF0000",
"@%	c #D20000",
"#%	c #700003",
"$%	c #3C003A",
"%%	c #060072",
"&%	c #001160",
"*%	c #013636",
"=%	c #00551D",
"-%	c #005D17",
";%	c #006415",
">%	c #006015",
",%	c #004724",
"'%	c #022458",
")%	c #0007B6",
"!%	c #0100F5",
"~%	c #E80000",
"{%	c #E70000",
"]%	c #CE0000",
"^%	c #810000",
"/%	c #51000B",
"(%	c #1C004C",
"_%	c #0000B6",
":%	c #0004B1",
"<%	c #00129B",
"[%	c #001A8D",
"}%	c #001F7D",
"|%	c #001C75",
"1%	c #010D8D",
"2%	c #0100C6",
"3%	c #0500F5",
"4%	c #A60000",
"5%	c #690000",
"6%	c #39002F",
"7%	c #0B0089",
"8%	c #0100EE",
"9%	c #0000D7",
"0%	c #0100CC",
"a%	c #0100E5",
"b%	c #0200FD",
"c%	c #FA0001",
"d%	c #F90002",
"e%	c #FC0001",
"f%	c #820000",
"g%	c #51001A",
"h%	c #1C007B",
"i%	c #0100D6",
"j%	c #0100FF",
"k%	c #0100F8",
"l%	c #F60000",
"m%	c #C00000",
"n%	c #58000B",
"o%	c #250063",
"p%	c #0300CC",
"q%	c #C40000",
"r%	c #880000",
"s%	c #55000C",
"t%	c #270048",
"u%	c #0400A5",
"v%	c #0000E9",
"w%	c #DD0000",
"x%	c #580013",
"y%	c #290051",
"z%	c #060099",
"A%	c #0100ED",
"B%	c #0100FD",
"C%	c #0000F9",
"D%	c #6E0003",
"E%	c #530013",
"F%	c #35003F",
"G%	c #1A007F",
"H%	c #0600B5",
"I%	c #0000D9",
"J%	c #0100F9",
"K%	c #E50000",
"L%	c #A80000",
"M%	c #5D0008",
"N%	c #37002F",
"O%	c #1F0063",
"P%	c #08009A",
"Q%	c #0000D3",
"R%	c #C60006",
"S%	c #420040",
"T%	c #06007C",
"U%	c #0200A7",
"V%	c #0000BC",
"W%	c #0000E2",
"X%	c #0000DF",
"                                                                                                ",
"                                                                                                ",
"                                                                                                ",
"                                    . + @ # $ % % & % % & &                                     ",
"                              * = - ; > , ' ) & % & % & % % & & &                               ",
"                          ! ~ { { = ] ^ / ( _ : % % & % & & % % % & <                           ",
"                        [ } | = 1 = - 2 3 4 5 6 7 % & & & & & & % & % 8                         ",
"                    9 0 a b c = 1 = 1 d e f g h i % & % % & & & & & % < j k                     ",
"                  l m n o p q = 1 = = r s t u v j % & & & % & & % & % % w x y                   ",
"                l z A B C D E = { = 1 F G H I J K % & & & % & & & & % L M N O =                 ",
"              P Q Q R S T U V = = = q W X Y Z `  .% & & & % % % % & % j ..+.@.#.{               ",
"              $.%.&.0 *.=.-.;.= = = >.,.'.).!.~.{.% & & & ].& & ].% % ^./.(._.= { :.            ",
"            <.P %.%.[.}.|.1.V = = = - 2.3.4.5.6.% % % & & % < < & & % K 7.8.9.{ { :.            ",
"          9 P Q z %.0.a.b.c.d.= = = 1 e.f.g.h.j % % % & & % & < & & % i.j.k.l.m.{ :.:.          ",
"          &.Q z %.%.m n.o.p.q.{ = = * r.s.t.u.v.% & % & & & < < < % % w.x.y.z.A.:.1 1           ",
"        0.Q Q Q %.%.B.C.D.E.F.G.= = ;.H.I.J.i & & & % & & & & & % & K.L.M.N.O.E P.{ c Q.        ",
"        l Q z z %.R.S.T.U.V.W.>.= #.X.Y.Z.`. +% & & % % % % % % %  +.+++@+#+q.= = = $+%+        ",
"        P z z %.z &+*+=+-+;+>+,+= >.'+)+!+~+{+< % % % 8 8 % % % % ]+^+/+(+_+:+= = <+[+}+|+      ",
"      1+Q z z %.P 2+3+4+5+6+7+:.= E 8+9+0+a+`.v.% b+c+d+e+{+v.b+8 f+g+h+i+z.j+= = k+l+m+n+      ",
"      o+Q z z %.%.2+p+q+r+s+t+= = u+v+w+x+y+~+z+v.`.A+B+C+D+u.d+# E+C+F+G+H+d.= = k+V I+J+      ",
"      &.Q z z %.%.K+L+M+N+O+P+= = G.Q+R+S+Z a+e+T+U+V+W+W+X+Y+g+Z+++`+ @.@:+#.= = k++@@@#@      ",
"      z Q Q z %.R.$@%@&@*@v+=@= = = -@;@>@,@I t.'@)@!@~@{@]@^@/@(@_@:@<@O.>.= = = = [@}@|@1@    ",
"      %.z Q z %.2@3@4@5@6@|+q = { = 7@8@9@0@a@b@c@d@e@e@f@g@h@i@j@k@l@]@m@* = = = = n@o@p@q@    ",
"    z z Q Q z %.r@3@s@t@e@u@1 = 1 = 1 v@w@x@y@z@A@p.B@C@2 8+E.D@E@F@G@H@I@1 = { = J@K@L@M@N@    ",
"    z z z z z %.O@P@Q@R@S@T@P.= { = = u+U@V@W@X@Y@Z@`@1 #. #.#+#@###$#%#l+= = = #.j+&#*#=#`.    ",
"      %.%.%.z %.P -#;#>#,#I@1 = = { = = - d.j+X.'#u+= = = = { )#!#~#{#O. #= = = >.m@]#^#/#N@    ",
"      z Q z z %.P (#_#:#<#[#}#= { 1 { { = = :.* :.= = = = = = 1 :+Z@|#1#= = = = E 2#3#4#5#6#    ",
"      P P z %.%.7#8#9#0#a#+#b#= = { { 1 { = = = #.c#d#e#1#* = = = #.{ = = { = = 1#f#g#h#i#      ",
"      P P z %.z 9 j#k#l#m#n#o#= = = = { = = = p#q#'+r#s#O.t#{ = = = = = { 1 = = u+u#v#w#x#      ",
"      P Q Q z %.Q O@y#z#A#B#Z@= = = = = = >.d#C#_+E.D#E#F#G#d.= = { { { 1 { = #.u@H#I#J#K#      ",
"        Q P Q %.%.%.R.L#M#N#O#>.1 `@P#u+P+Q#e@R#S#T#U#V#W#X#2 c#= = = = = = #.T@Y#Z#`# ${+      ",
"        &.Q Q z z %.%..$+$@$#$$$o#%$r#&$S@*$=$-$;$>$,$'$)$!$~${$]$:.= :.* q T@^$/$($_$c+        ",
"        &.Q Q z %.z %.%.:$<$[$}$|$1$2$3$4$5$6$7$8$9$0$a$b$c$d$e$f$)#b#t+Z@g$s#E.h$i$j$%         ",
"          P Q z z %.%.%.l k$l$m$n$o$p$q$r$s$<$t$l$u$v$w$l$x$y$z$A$G#^$A@B$C$H@D$E$F$% %         ",
"          P Q Q z z z %.%.9 8#G$H$I$J$I$K$L$P@L$M$N$O$P$Q$R$S$T$U$f@s+U$V$W$X$Y$Z$]+%           ",
"            <.Q Q %.z z %.%.9 2+`$ %O$`$.%+%9 A r@+%@%P$#%$%%%&%*%=%-%;%>%,%'%)%z+!%            ",
"            1+P Q z %.z z %.%.z 9 ~%{%m Q %.%.%.%.%.]%^%/%(%(@_%:%<%[%}%|%1%2%8 % 3%            ",
"              P &.P %.%.z z %.%.%.%.%.%.%.%.%.%.%.{%4%5%6%7%L.8%b+K.j 9%0%a%8 % b%              ",
"                c%d%e%z Q z %.z z z z z z %.%.%.9 L$f%g%h%i%{.% j%% %  +k%% % &                 ",
"                  c%c%Q Q z %.z %.%.z z %.%.%.l%m%f%n%o%p%8 % % & ].% % % % %                   ",
"                    P Q P Q %.%.z z %.%.%.0.{%q%r%s%t%u%v%% % b%b%< & % % &                     ",
"                        P P Q z z %.%.l w%L$z#m$x%y%z%E+A%B%% & & 8 C%8 &                       ",
"                          P P P z %..$(#t$D%E%F%G%H%I%z+J%& % % 8 {.C%                          ",
"                              P <.c%K%L%M%N%O%P%Q%v%w.L b%% {. +<                               ",
"                                    9 R%S%T%U%V%9%W%X%]+% < K.                                  ",
"                                              e+X%                                              ",
"                                                                                                ",
"                                                                                                "};
