/* XPM */
static char * liquidwar_32x32_xpm[] = {
"32 32 345 2",
"  	c None",
". 	c #005630",
"+ 	c #000A87",
"@ 	c #0000CE",
"# 	c #0000F8",
"$ 	c #0000FE",
"% 	c #0000FF",
"& 	c #0000EC",
"* 	c #0000E6",
"= 	c #03C906",
"- 	c #00DF04",
"; 	c #00FA01",
"> 	c #00B607",
", 	c #00474A",
"' 	c #00009F",
") 	c #0000DC",
"! 	c #0000FA",
"~ 	c #0000F9",
"{ 	c #476902",
"] 	c #00F500",
"^ 	c #00FE00",
"/ 	c #00E200",
"( 	c #00681B",
"_ 	c #00008C",
": 	c #0000B7",
"< 	c #0000E3",
"[ 	c #B60009",
"} 	c #AF0000",
"| 	c #4E5200",
"1 	c #00EB00",
"2 	c #00F000",
"3 	c #00772B",
"4 	c #000089",
"5 	c #0000AE",
"6 	c #0000FD",
"7 	c #000BB6",
"8 	c #B8000C",
"9 	c #EE0000",
"0 	c #9B0000",
"a 	c #474A00",
"b 	c #00DD00",
"c 	c #007925",
"d 	c #0000B2",
"e 	c #0000F4",
"f 	c #001688",
"g 	c #00A51C",
"h 	c #FD0001",
"i 	c #E90000",
"j 	c #8E0000",
"k 	c #355900",
"l 	c #00DA00",
"m 	c #00D900",
"n 	c #00583C",
"o 	c #0000C4",
"p 	c #0000E9",
"q 	c #00186C",
"r 	c #00A913",
"s 	c #00F101",
"t 	c #F10005",
"u 	c #FE0000",
"v 	c #F80000",
"w 	c #B50000",
"x 	c #1F7400",
"y 	c #00DF00",
"z 	c #00DB01",
"A 	c #003F4D",
"B 	c #000096",
"C 	c #0000DF",
"D 	c #0000F0",
"E 	c #00245C",
"F 	c #00A60A",
"G 	c #00FB00",
"H 	c #00CF02",
"I 	c #CC0008",
"J 	c #F70000",
"K 	c #A50000",
"L 	c #117500",
"M 	c #00D100",
"N 	c #00D903",
"O 	c #003B57",
"P 	c #0000AC",
"Q 	c #003B46",
"R 	c #009702",
"S 	c #00F100",
"T 	c #DF0004",
"U 	c #930000",
"V 	c #096D02",
"W 	c #00B200",
"X 	c #00FC00",
"Y 	c #00AD08",
"Z 	c #002865",
"` 	c #0000B8",
" .	c #004F30",
"..	c #00BC00",
"+.	c #00FF00",
"@.	c #00E303",
"#.	c #FB0001",
"$.	c #CC0000",
"%.	c #750700",
"&.	c #006002",
"*.	c #00AE00",
"=.	c #00F600",
"-.	c #008F0D",
";.	c #002170",
">.	c #0000D0",
",.	c #0000DD",
"'.	c #000295",
").	c #007708",
"!.	c #00D500",
"~.	c #00C803",
"{.	c #B00017",
"].	c #FD0000",
"^.	c #590B02",
"/.	c #006200",
"(.	c #00EF00",
"_.	c #007C0D",
":.	c #001D73",
"<.	c #0000B4",
"[.	c #0000ED",
"}.	c #0000EF",
"|.	c #0000CC",
"1.	c #0000CA",
"2.	c #0000E5",
"3.	c #0000EA",
"4.	c #0000B9",
"5.	c #002965",
"6.	c #008C00",
"7.	c #00D000",
"8.	c #DB001A",
"9.	c #A90000",
"0.	c #420D0E",
"a.	c #006D00",
"b.	c #00CF00",
"c.	c #007B0B",
"d.	c #00175C",
"e.	c #0000A0",
"f.	c #0000CF",
"g.	c #0008AA",
"h.	c #002A68",
"i.	c #00345B",
"j.	c #003161",
"k.	c #0006A5",
"l.	c #0000AF",
"m.	c #00028B",
"n.	c #004933",
"o.	c #00BA00",
"p.	c #00D300",
"q.	c #00690F",
"r.	c #F60000",
"s.	c #9E0000",
"t.	c #4D2B04",
"u.	c #008900",
"v.	c #00E500",
"w.	c #00B809",
"x.	c #002448",
"y.	c #000070",
"z.	c #00097B",
"A.	c #006326",
"B.	c #008A01",
"C.	c #008700",
"D.	c #007B00",
"E.	c #00502E",
"F.	c #000A7A",
"G.	c #001256",
"H.	c #005C11",
"I.	c #00CC00",
"J.	c #005628",
"K.	c #F30000",
"L.	c #980000",
"M.	c #3C4800",
"N.	c #00AA00",
"O.	c #00DF01",
"P.	c #004D2A",
"Q.	c #001555",
"R.	c #004A2F",
"S.	c #008D00",
"T.	c #00A900",
"U.	c #00BE00",
"V.	c #00A400",
"W.	c #006F03",
"X.	c #00312C",
"Y.	c #002B43",
"Z.	c #008104",
"`.	c #00EE00",
" +	c #00F700",
".+	c #00AB01",
"++	c #003742",
"@+	c #FF0000",
"#+	c #FB0000",
"$+	c #304400",
"%+	c #00A700",
"&+	c #00F800",
"*+	c #00DE00",
"=+	c #00B800",
"-+	c #00AB00",
";+	c #00C200",
">+	c #00F400",
",+	c #00FD00",
"'+	c #00D700",
")+	c #008406",
"!+	c #005A10",
"~+	c #009600",
"{+	c #00F900",
"]+	c #008808",
"^+	c #002654",
"/+	c #FE0001",
"(+	c #FC0000",
"_+	c #A60000",
":+	c #3A3700",
"<+	c #009500",
"[+	c #00F300",
"}+	c #00BF00",
"|+	c #007912",
"1+	c #001C5E",
"2+	c #E1000A",
"3+	c #F10000",
"4+	c #B00000",
"5+	c #6D0D00",
"6+	c #046500",
"7+	c #00CA00",
"8+	c #00E900",
"9+	c #006726",
"0+	c #DF0006",
"a+	c #E20000",
"b+	c #2E3800",
"c+	c #00B000",
"d+	c #00CB00",
"e+	c #009400",
"f+	c #068900",
"g+	c #097C00",
"h+	c #00AF00",
"i+	c #00EC00",
"j+	c #00A800",
"k+	c #005041",
"l+	c #F70002",
"m+	c #DF0000",
"n+	c #720B00",
"o+	c #1D6B00",
"p+	c #00E400",
"q+	c #00CD00",
"r+	c #027A00",
"s+	c #0E6F00",
"t+	c #224F00",
"u+	c #4E1900",
"v+	c #491600",
"w+	c #0D6C00",
"x+	c #008606",
"y+	c #001790",
"z+	c #F60002",
"A+	c #B60000",
"B+	c #611400",
"C+	c #2D6C00",
"D+	c #068300",
"E+	c #018600",
"F+	c #0F6800",
"G+	c #462C00",
"H+	c #671900",
"I+	c #770900",
"J+	c #780000",
"K+	c #6D0300",
"L+	c #414200",
"M+	c #00B900",
"N+	c #00E600",
"O+	c #00C400",
"P+	c #007D01",
"Q+	c #005549",
"R+	c #0001DC",
"S+	c #F00000",
"T+	c #8F0000",
"U+	c #8E0200",
"V+	c #7F0C00",
"W+	c #900100",
"X+	c #9F0000",
"Y+	c #9C0000",
"Z+	c #9A0000",
"`+	c #890000",
" @	c #75000F",
".@	c #004025",
"+@	c #007A02",
"@@	c #007800",
"#@	c #007A04",
"$@	c #003F58",
"%@	c #0005D0",
"&@	c #DA0008",
"*@	c #EF0000",
"=@	c #C20000",
"-@	c #AA0000",
";@	c #AB0000",
">@	c #CF0000",
",@	c #EA0000",
"'@	c #E60000",
")@	c #D10000",
"!@	c #7D0000",
"~@	c #490035",
"{@	c #000C66",
"]@	c #003A35",
"^@	c #006517",
"/@	c #006B11",
"(@	c #005B1C",
"_@	c #00304F",
":@	c #0006BF",
"<@	c #0000E2",
"[@	c #F20003",
"}@	c #BC0000",
"|@	c #5C000B",
"1@	c #190062",
"2@	c #0000BA",
"3@	c #0000D7",
"4@	c #0000B0",
"5@	c #0000D6",
"6@	c #0000D3",
"7@	c #FB0003",
"8@	c #DC0000",
"9@	c #880000",
"0@	c #41003F",
"a@	c #0500C1",
"b@	c #0000F5",
"c@	c #0000FC",
"d@	c #0000F2",
"e@	c #0000F1",
"f@	c #EF0003",
"g@	c #F90000",
"h@	c #E10000",
"i@	c #820002",
"j@	c #4C0025",
"k@	c #0600B6",
"l@	c #0000D9",
"m@	c #CA0008",
"n@	c #850000",
"o@	c #4E0029",
"p@	c #0F0089",
"q@	c #0000D2",
"r@	c #0000F7",
"s@	c #EC0002",
"t@	c #E90004",
"u@	c #D30000",
"v@	c #7E0002",
"w@	c #500024",
"x@	c #250068",
"y@	c #0200C2",
"z@	c #0000E0",
"A@	c #2C002D",
"B@	c #0F007D",
"C@	c #0100A1",
"D@	c #0000D5",
"                                                                ",
"                                                                ",
"                        . + @ # $ % & *                         ",
"                  = - ; > , ' ) $ % % % ! ~                     ",
"                { ] ^ ^ / ( _ : $ % % % % % % <                 ",
"            [ } | 1 ^ ^ 2 3 4 5 6 % % % % % % 6 7               ",
"          8 9 0 a b ^ ^ / c _ d 6 % % % % % % e f g             ",
"          h i j k l ^ ^ m n _ o $ % % % % % % p q r s           ",
"        t u v w x y ^ ^ z A B C $ % % % % % % D E F G H         ",
"      I u u J K L M ^ ^ N O P D $ % % % % % % D Q R S ^         ",
"      T u u i U V W ^ X Y Z ) 6 $ % % % % % D `  ...X +.@.      ",
"      #.u u $.%.&.*.^ =.-.;.>.~ $ % 6 $ % % ,.'.).!.+.^ ~.      ",
"    {.u u ].} ^./...^ (._.:.<.[.}.|.<.1.2.3.4.5.6.m +.+.7.      ",
"    8.u u u 9.0.a.b.^ =.c.d.e.f.g.h.i.j.k.l.m.n.o.] +.+.p.q.    ",
"    u u u r.s.t.u.v.^ ^ w.x.y.z.A.B.C.D.E.F.G.H.l ^ +.^ I.J.    ",
"    u u u K.L.M.N.=.^ ^ O.P.Q.R.S.T.U.V.W.X.Y.Z.`.+.+. +.+++    ",
"    @+@+@+#+0 $+%+&++.+.G *+=+-+;+>+^ ,+'+)+!+~+{++.X p.]+^+    ",
"    /+@+@+(+_+:+<+2 +.+.+.^ {+[+&+^ ^ +.X b =+/ +.+.&+}+|+1+    ",
"    2+@+@+3+4+5+6+7.+.+.^ ^ ,+{+b 7+7+8++.+.^ +.+.+. +..9+      ",
"    0+@+@+#+a+0 b+c+^ ^ ,+G `.d+e+f+g+h+&++.+.+.+.+.i+j+k+      ",
"      l+@+@+].m+n+o+p+b.q+=+r+s+t+u+v+w+;+[+^ ^ X `.j+x+y+      ",
"      z+@+@+@+].A+B+C+D+E+F+G+H+I+J+K+L+~+M+N+!.O+h+P+Q+R+      ",
"        @+@+@+@+S+} T+U+V+W+s.X+Y+Z+`+ @.@+@e+@@a.#@$@%@        ",
"        &@@+@+@+u *@=@-@;@>@,@,@'@)@!@~@{@]@^@/@(@_@:@<@        ",
"          [@@+@+@+@+u #+#+u @+@+v }@|@1@2@3@1.: 4@5@6@          ",
"            7@@+@+@+@+@+@+@+@+@+8@9@0@a@b@$ c@d@e@D             ",
"              f@@+@+@+@+@+u g@h@i@j@k@b@% % % % l@              ",
"                m@/+@+@+(+h@4+n@o@p@q@c@% % ! r@                ",
"                    s@t@u@v@w@x@y@z@! % d@~                     ",
"                          A@B@C@5@D@                            ",
"                                                                ",
"                                                                "};
