/* XPM */
static char * liquidwar_xpm[] = {
"48 48 535 2",
"  	c None",
". 	c #004F20",
"+ 	c #000179",
"@ 	c #00009C",
"# 	c #0000D0",
"$ 	c #0000FA",
"% 	c #0000FE",
"& 	c #0000FF",
"* 	c #0000F3",
"= 	c #0000C0",
"- 	c #00800E",
"; 	c #00E20C",
"> 	c #00F900",
", 	c #00B900",
"' 	c #00533B",
") 	c #00018F",
"! 	c #00009A",
"~ 	c #0000D7",
"{ 	c #0000FC",
"] 	c #0000D4",
"^ 	c #097A07",
"/ 	c #00F006",
"( 	c #00FE00",
"_ 	c #00DC00",
": 	c #009900",
"< 	c #003E51",
"[ 	c #000092",
"} 	c #0000A3",
"| 	c #0000E9",
"1 	c #0000DD",
"2 	c #6B2F04",
"3 	c #00EC00",
"4 	c #00AD00",
"5 	c #00442A",
"6 	c #00008F",
"7 	c #000091",
"8 	c #990001",
"9 	c #682600",
"0 	c #00D400",
"a 	c #00FC00",
"b 	c #00BE00",
"c 	c #004126",
"d 	c #00007F",
"e 	c #000090",
"f 	c #0000D8",
"g 	c #9A000E",
"h 	c #EE0000",
"i 	c #9B0000",
"j 	c #7B0F00",
"k 	c #00C100",
"l 	c #00E300",
"m 	c #004B4D",
"n 	c #000089",
"o 	c #0000BC",
"p 	c #0000FB",
"q 	c #0000CA",
"r 	c #002B6E",
"s 	c #950012",
"t 	c #FD0000",
"u 	c #DB0000",
"v 	c #880000",
"w 	c #721400",
"x 	c #00AF00",
"y 	c #00F700",
"z 	c #00C400",
"A 	c #006033",
"B 	c #00008B",
"C 	c #0000BE",
"D 	c #0000F7",
"E 	c #0000B4",
"F 	c #004052",
"G 	c #00D505",
"H 	c #FE0000",
"I 	c #FB0000",
"J 	c #BF0000",
"K 	c #6E0000",
"L 	c #5D2200",
"M 	c #00A700",
"N 	c #00F400",
"O 	c #00EF00",
"P 	c #004742",
"Q 	c #000088",
"R 	c #0000CD",
"S 	c #0000FD",
"T 	c #0000DE",
"U 	c #004642",
"V 	c #00DA00",
"W 	c #00F101",
"X 	c #F90003",
"Y 	c #FC0000",
"Z 	c #C80000",
"` 	c #750000",
" .	c #483A00",
"..	c #00F300",
"+.	c #00EE00",
"@.	c #002165",
"#.	c #000087",
"$.	c #000097",
"%.	c #0000E3",
"&.	c #000083",
"*.	c #004B33",
"=.	c #00D900",
"-.	c #00D603",
";.	c #E0000C",
">.	c #EB0000",
",.	c #9A0000",
"'.	c #325600",
").	c #00AC00",
"!.	c #00F600",
"~.	c #00F000",
"{.	c #00A702",
"].	c #000970",
"^.	c #0000A8",
"/.	c #0000F4",
"(.	c #0000EA",
"_.	c #000382",
":.	c #005126",
"<.	c #00D700",
"[.	c #00FF00",
"}.	c #009505",
"|.	c #81000D",
"1.	c #F00000",
"2.	c #970000",
"3.	c #285A00",
"4.	c #00B100",
"5.	c #00B503",
"6.	c #000A77",
"7.	c #00166B",
"8.	c #00660E",
"9.	c #00F100",
"0.	c #00FC01",
"a.	c #F10006",
"b.	c #E40000",
"c.	c #7A0000",
"d.	c #136300",
"e.	c #009700",
"f.	c #00F200",
"g.	c #009B0B",
"h.	c #000682",
"i.	c #00009B",
"j.	c #002862",
"k.	c #007203",
"l.	c #00A500",
"m.	c #00E800",
"n.	c #00B20F",
"o.	c #80000E",
"p.	c #D30000",
"q.	c #7E0000",
"r.	c #146500",
"s.	c #008A00",
"t.	c #00C800",
"u.	c #00FD00",
"v.	c #00D300",
"w.	c #007E11",
"x.	c #00018A",
"y.	c #0000C6",
"z.	c #0000E7",
"A.	c #0000B9",
"B.	c #00245A",
"C.	c #007B00",
"D.	c #00C900",
"E.	c #00F802",
"F.	c #E2000C",
"G.	c #F40000",
"H.	c #B60000",
"I.	c #6C0000",
"J.	c #025709",
"K.	c #007F00",
"L.	c #00F800",
"M.	c #006722",
"N.	c #0000DA",
"O.	c #0000F8",
"P.	c #000084",
"Q.	c #004C23",
"R.	c #00A800",
"S.	c #006E0D",
"T.	c #D40000",
"U.	c #9E0000",
"V.	c #550F00",
"W.	c #005700",
"X.	c #006B00",
"Y.	c #00CE00",
"Z.	c #00A000",
"`.	c #005F29",
" +	c #000095",
".+	c #0000B3",
"++	c #0000EE",
"@+	c #0000B0",
"#+	c #000485",
"$+	c #006C01",
"%+	c #009E00",
"&+	c #00E600",
"*+	c #008D09",
"=+	c #7E001A",
"-+	c #C40000",
";+	c #890000",
">+	c #4B1000",
",+	c #006E00",
"'+	c #009300",
")+	c #005C2A",
"!+	c #0000A7",
"~+	c #0000DB",
"{+	c #0000C5",
"]+	c #0000C8",
"^+	c #0000F5",
"/+	c #0000D5",
"(+	c #000093",
"_+	c #002E5E",
":+	c #007200",
"<+	c #00EA00",
"[+	c #9F0035",
"}+	c #CD0000",
"|+	c #6F0000",
"1+	c #3C100B",
"2+	c #005B00",
"3+	c #008500",
"4+	c #00E900",
"5+	c #008800",
"6+	c #004924",
"7+	c #0000A2",
"8+	c #0000BB",
"9+	c #0000B5",
"0+	c #0000C4",
"a+	c #00008E",
"b+	c #005E2F",
"c+	c #008E00",
"d+	c #00CB00",
"e+	c #009B00",
"f+	c #DF001F",
"g+	c #C60000",
"h+	c #660000",
"i+	c #271619",
"j+	c #005C00",
"k+	c #004520",
"l+	c #00006D",
"m+	c #0000AB",
"n+	c #0000D3",
"o+	c #00226A",
"p+	c #004E3D",
"q+	c #004E41",
"r+	c #004E3F",
"s+	c #004843",
"t+	c #000E91",
"u+	c #0000A5",
"v+	c #00009F",
"w+	c #000082",
"x+	c #000A6D",
"y+	c #007102",
"z+	c #00AE00",
"A+	c #00A300",
"B+	c #003F1A",
"C+	c #F50000",
"D+	c #AE0000",
"E+	c #830000",
"F+	c #34300A",
"G+	c #006300",
"H+	c #005F24",
"I+	c #000061",
"J+	c #00006B",
"K+	c #003655",
"L+	c #008603",
"M+	c #008900",
"N+	c #008200",
"O+	c #008100",
"P+	c #006A1A",
"Q+	c #00058D",
"R+	c #000068",
"S+	c #002440",
"T+	c #006500",
"U+	c #00BF00",
"V+	c #003C34",
"W+	c #9D0000",
"X+	c #920000",
"Y+	c #276000",
"Z+	c #008B00",
"`+	c #00F500",
" @	c #00850D",
".@	c #000058",
"+@	c #00005E",
"@@	c #000067",
"#@	c #002747",
"$@	c #008C00",
"%@	c #009000",
"&@	c #007600",
"*@	c #006A00",
"=@	c #00461C",
"-@	c #000367",
";@	c #000066",
">@	c #005A1D",
",@	c #00D100",
"'@	c #009200",
")@	c #001F4E",
"!@	c #8A0000",
"~@	c #0A7100",
"{@	c #00ED00",
"]@	c #003030",
"^@	c #001552",
"/@	c #003447",
"(@	c #007908",
"_@	c #00C700",
":@	c #00DF00",
"<@	c #00CF00",
"[@	c #00B800",
"}@	c #008600",
"|@	c #002E29",
"1@	c #000E5A",
"2@	c #007703",
"3@	c #008406",
"4@	c #00056A",
"5@	c #FF0000",
"6@	c #F80000",
"7@	c #AC0000",
"8@	c #800000",
"9@	c #086B00",
"0@	c #00EB00",
"a@	c #00BD00",
"b@	c #009600",
"c@	c #008F00",
"d@	c #00580D",
"e@	c #004125",
"f@	c #006000",
"g@	c #009500",
"h@	c #007811",
"i@	c #000071",
"j@	c #AF0000",
"k@	c #630000",
"l@	c #185D00",
"m@	c #00E700",
"n@	c #00E500",
"o@	c #00FA00",
"p@	c #009F00",
"q@	c #006F00",
"r@	c #00B300",
"s@	c #006623",
"t@	c #000075",
"u@	c #FC0002",
"v@	c #FA0000",
"w@	c #790000",
"x@	c #214E00",
"y@	c #006C00",
"z@	c #00A200",
"A@	c #004B3E",
"B@	c #E4000E",
"C@	c #E80000",
"D@	c #B10000",
"E@	c #8D0000",
"F@	c #4B1D00",
"G@	c #005800",
"H@	c #00DE00",
"I@	c #002466",
"J@	c #B0000F",
"K@	c #F10000",
"L@	c #700000",
"M@	c #144500",
"N@	c #00FB00",
"O@	c #00B700",
"P@	c #00A600",
"Q@	c #008A02",
"R@	c #000B83",
"S@	c #DA0000",
"T@	c #8C0000",
"U@	c #5D0D00",
"V@	c #026100",
"W@	c #00CA00",
"X@	c #008700",
"Y@	c #0D7F00",
"Z@	c #146700",
"`@	c #007A00",
" #	c #008D00",
".#	c #006D1C",
"+#	c #0000AA",
"@#	c #FB0003",
"##	c #F70000",
"$#	c #293300",
"%#	c #00AB00",
"&#	c #00E400",
"*#	c #00CD00",
"=#	c #009100",
"-#	c #007900",
";#	c #154E00",
">#	c #5F1000",
",#	c #5A0500",
"'#	c #124B00",
")#	c #002D69",
"!#	c #0000AC",
"~#	c #C30010",
"{#	c #B20000",
"]#	c #640100",
"^#	c #285900",
"/#	c #00BC00",
"(#	c #00B500",
"_#	c #006100",
":#	c #134E00",
"<#	c #374A00",
"[#	c #532900",
"}#	c #610100",
"|#	c #5D0000",
"1#	c #5B0000",
"2#	c #4F1800",
"3#	c #018500",
"4#	c #00D600",
"5#	c #00711C",
"6#	c #0003C2",
"7#	c #583000",
"8#	c #1A6F00",
"9#	c #007E00",
"0#	c #037D00",
"a#	c #215300",
"b#	c #5B1E00",
"c#	c #7C0000",
"d#	c #840000",
"e#	c #850000",
"f#	c #730000",
"g#	c #3D4C00",
"h#	c #00D500",
"i#	c #00AA00",
"j#	c #009400",
"k#	c #007100",
"l#	c #007C04",
"m#	c #002894",
"n#	c #D2000A",
"o#	c #C30000",
"p#	c #8B0400",
"q#	c #701900",
"r#	c #860300",
"s#	c #8E0000",
"t#	c #8B0000",
"u#	c #8F0000",
"v#	c #900000",
"w#	c #7C0005",
"x#	c #00441E",
"y#	c #006D00",
"z#	c #007000",
"A#	c #006700",
"B#	c #00760C",
"C#	c #001589",
"D#	c #0000EB",
"E#	c #F90000",
"F#	c #960000",
"G#	c #AA0000",
"H#	c #BE0000",
"I#	c #CF0000",
"J#	c #C00000",
"K#	c #BC0000",
"L#	c #BA0000",
"M#	c #4B0039",
"N#	c #000463",
"O#	c #00500F",
"P#	c #007300",
"Q#	c #006900",
"R#	c #006800",
"S#	c #006512",
"T#	c #001B88",
"U#	c #AD0012",
"V#	c #E20000",
"W#	c #C50000",
"X#	c #CB0000",
"Y#	c #F30000",
"Z#	c #D60000",
"`#	c #7B0000",
" $	c #24005A",
".$	c #00007A",
"+$	c #00086D",
"@$	c #00323D",
"#$	c #005827",
"$$	c #00601A",
"%$	c #006D1A",
"&$	c #006120",
"*$	c #003940",
"=$	c #000488",
"-$	c #0000C1",
";$	c #0000ED",
">$	c #DC0008",
",$	c #B30000",
"'$	c #670000",
")$	c #560009",
"!$	c #02006A",
"~$	c #0000C9",
"{$	c #0000C3",
"]$	c #0000B6",
"^$	c #00009E",
"/$	c #000094",
"($	c #0000A9",
"_$	c #EE0005",
":$	c #D80000",
"<$	c #860000",
"[$	c #310053",
"}$	c #0000B1",
"|$	c #0000D9",
"1$	c #0000F9",
"2$	c #0000F2",
"3$	c #0000C7",
"4$	c #F70007",
"5$	c #ED0000",
"6$	c #9C0000",
"7$	c #6A0000",
"8$	c #540025",
"9$	c #0000F0",
"0$	c #0000E4",
"a$	c #F00003",
"b$	c #A60000",
"c$	c #690000",
"d$	c #5B0010",
"e$	c #0D0094",
"f$	c #0000E2",
"g$	c #D0000B",
"h$	c #F60000",
"i$	c #A70000",
"j$	c #560013",
"k$	c #0C007C",
"l$	c #0000AF",
"m$	c #0000F1",
"n$	c #0000A0",
"o$	c #8B0011",
"p$	c #FA0004",
"q$	c #A10000",
"r$	c #740000",
"s$	c #680000",
"t$	c #5E0013",
"u$	c #0D0089",
"v$	c #0000AD",
"w$	c #BB0006",
"x$	c #550010",
"y$	c #270065",
"z$	c #0400A5",
"A$	c #0000DF",
"B$	c #0000F6",
"C$	c #87000F",
"D$	c #D8000C",
"E$	c #58000A",
"F$	c #410048",
"G$	c #080094",
"H$	c #01004A",
"I$	c #0000CF",
"J$	c #0000BD",
"                                                                                                ",
"                                                                                                ",
"                                                                                                ",
"                                    . + @ # $ % % & & * =                                       ",
"                              - ; > , ' ) ! ~ { % & & & & & & ]                                 ",
"                          ^ / ( ( ( _ : < [ } | % & & & & & & & & 1                             ",
"                        2 3 ( ( ( ( > 4 5 6 7 # % & & & & & & & & & & =                         ",
"                      8 9 0 ( ( ( ( a b c d e = { & & & & & & & & & & % f                       ",
"                  g h i j k a ( ( ( ( l m n e o p & & & & & & & & & & { q r                     ",
"                s t u v w x y ( ( ( y z A B 6 C p & & & & & & & & & % D E F G                   ",
"                H I J K L M N ( ( ( O x P Q e R S & & & & & & & & & S T B U V W                 ",
"              X H Y Z `  .M ..( ( ( +.4 @.#.$.%.% & & & & & & & & & % T &.*.=.( -.              ",
"            ;.H H H >.,.'.).!.( ( ( ~.{.].#.^./.% & & & & & & & & & % (._.:.<.( [.}.            ",
"          |.H H H H 1.2.3.4.> ( ( ( > 5.6.B = p % & & & & & & & & & % | 7.8., 9.( 0.            ",
"          a.H H H H b.c.d.e.l ( ( ( f.g.h.i.%.% % & & & & & & & & & % | j.k.l.m.( [.n.          ",
"        o.H H H H Y p.q.r.s.t.( ( u.v.w.x.y.p % % & & & & & & & & S z.A.B.C.D.> ( [.E.          ",
"        F.H H H H G.H.I.J.K.D.( ( L.4.M.[ N.{ % % & & & & & & & & O.= P.Q.R.O ( [.( f.S.        ",
"        H H H H t T.U.V.W.X.Y.( ( ~.Z.`. +.+(.% % & % { S % & & % ++@+#+$+%++.[.[.( &+*+        ",
"      =+H H H H Y -+;+>+W.,+V ( ( &+'+)+@ !+~+% % /.N.{+]+(.D ^+{ /+(+_+:+Z.<+[.[.[.<+%+        ",
"      [+H H H H H }+|+1+2+3+<+( ( 4+5+6+(+7+8+/.| 9+ +e e ^.0+8+] 8+a+b+c+d+L.[.[.[.4+e+        ",
"      f+H H H H H g+h+i+j+'+..( ( y e+k+l+(+m+n+!+o+p+q+r+s+t+u+v+w+x+y+z+!.( [.[.[.+.A+B+      ",
"      H H H H H C+D+E+F+G+R.> ( ( ( v.H+I+J+e 6 K+L+s.M+N+O+P+Q+7 R+S+T+U+u.[.[.[.( 3 l.V+      ",
"      H H H H H >.W+X+Y+Z+_ ( ( ( ( `+ @.@+@@@#@5+s.$@%@&@*@*@=@-@;@>@O+V ( [.[.[.a ,@'@)@      ",
"      H H H H H h U.!@~@$@{@( ( ( ( u., ]@^@/@(@s.e+_@:@<@[@}@j+|@1@2@%@3 [.[.[.( O 4.3@4@      ",
"      5@5@5@5@5@6@7@8@9@N+0@( [.[.[.( 9.a@Z.b@c@: 0 a ( u.a l c@d@e@f@g@..[.[.[.> _@g@h@i@      ",
"      5@5@5@5@5@Y j@k@l@$@m.[.[.[.[.[.( a ..m@V n@o@[.[.[.[.( 3 p@q@5+0 u.[.[.[...r@c+s@t@      ",
"      u@5@5@5@H v@Z w@x@y@t.( [.[.[.[.[.[.[.( ( ( [.( ( ( [.[.( m.,@m.a [.[.[.( 4+z@Z+A@i@      ",
"      B@5@5@5@H C@D@E@F@G@e.y [.[.[.( ( ( u.( ( > 3 :@H@<+a [.[.( ( ( [.[.[.[.( m.l.c@I@        ",
"      J@5@5@5@H K@p.7@L@M@&@m@[.[.[.( u.[.( N@m.O@p@g@g@l.n@( [.[.[.[.[.[.[.[.( m.P@Q@R@        ",
"        5@5@5@5@H Y S@T@U@V@W@( ( ( ( a > 3 V R.X@}@Y@Z@`@4.~.( [.[.[.[.[.[.[.> k  #.#+#        ",
"        @#5@5@5@5@5@##J c.$#%#o@L.&#<++.*#=#-#3+&@;#>#,#'#3+O@..( [.[.[.[.( y _@'+s.)#!#        ",
"        ~#5@5@5@5@5@H ##{#]#^#/#(#M+'@=#*@_#:#<#[#}#|#1#2#3#e+4#{@a u.N@o@f.D.'@3+5#6#          ",
"          H 5@5@5@5@5@H C@q.|+7#8#9#O+0#a#b#c#;+;+d#e#f#8@g#3+'@).H@h#[@%#i#j#k#l#m#|           ",
"          n#5@5@5@5@5@5@Y o#;+;+X+p#q#r#v !@s#t#t#u#v#;+;+w#x#y#%@M j#z#A#K.X@B#C#D#            ",
"            H 5@5@5@5@5@5@E#o#F#v#E@t#X+G#H#I#J#K#L#G#!@v M#N#O#z#O+X.P#Q#R#S#T#]+%.            ",
"            U#5@5@5@5@5@5@5@v@V#W#{#{#X#Y#Y H Y Y v@Z#`#L@ $.$+$@$#$$$%$&$*$=$-$;$              ",
"              >$5@5@5@5@5@5@5@H Y 6@6@I H 5@5@5@H C+,$'$)$!$(+~${$]$@+^$/$($n+* v+              ",
"                _$5@5@5@5@5@5@5@5@5@5@5@5@5@5@5@t :$<$k@[$}$|$1${ $ 2$] # ++{ 3$                ",
"                  4$5@5@5@5@5@5@5@5@5@5@5@5@5@H 5$6$7$8$($9$% & & & % p { % 0$                  ",
"                    a$5@5@5@5@5@5@5@5@5@5@5@H 1.b$c$d$e$f${ & & & & & & & 3$                    ",
"                      g$5@5@5@5@5@5@5@H I h$u i$c$j$k$l$m$% & & & & & & n$                      ",
"                        o$p$5@5@5@5@H G.-+q$r$s$t$u$v$~$1$& & & & & (.                          ",
"                            w$I 5@H 6@H#L@h+x$y$z$8+A$^+% & & & B$                              ",
"                                C$D$Z 8@E$F$G$}$(.^+{ % & & q                                   ",
"                                        H$w+i.v+]+I$J$                                          ",
"                                                                                                ",
"                                                                                                ",
"                                                                                                "};
